<?xml version="1.0" standalone="no"?>
<!DOCTYPE svg PUBLIC "-//W3C//DTD SVG 20010904//EN"
 "http://www.w3.org/TR/2001/REC-SVG-20010904/DTD/svg10.dtd">
<svg version="1.0" xmlns="http://www.w3.org/2000/svg"
 width="1280.000000pt" height="640.000000pt" viewBox="0 0 1280.000000 640.000000"
 preserveAspectRatio="xMidYMid meet">
<metadata>
Created by potrace 1.15, written by Peter Selinger 2001-2017
</metadata>
<g transform="translate(0.000000,640.000000) scale(0.100000,-0.100000)"
fill="#000000" stroke="none">
<path d="M6362 6139 c-48 -107 -107 -190 -252 -349 -151 -165 -195 -222 -244
-312 -51 -94 -76 -180 -84 -287 l-7 -96 -50 70 c-71 100 -204 235 -291 295
-90 62 -225 127 -291 139 -94 18 -266 24 -363 12 -137 -17 -202 -36 -320 -93
-93 -45 -115 -61 -200 -147 -90 -90 -98 -101 -133 -191 -60 -155 -78 -240 -79
-370 -1 -186 47 -323 172 -488 101 -135 183 -204 611 -517 186 -137 250 -203
304 -317 55 -116 78 -202 78 -293 0 -92 -15 -142 -62 -205 -55 -73 -126 -123
-278 -197 -118 -57 -134 -68 -163 -110 -37 -57 -44 -82 -36 -127 21 -110 136
-141 357 -96 277 57 488 194 572 372 61 128 63 267 7 402 -57 140 -83 265 -84
406 -1 140 15 204 61 240 83 65 227 -35 326 -227 48 -94 97 -243 97 -298 0
-30 -5 -34 -73 -68 -236 -116 -285 -309 -117 -460 57 -51 166 -108 242 -127
l46 -12 -15 -36 c-26 -62 -101 -169 -165 -232 -365 -366 -1015 -357 -1358 17
l-59 64 39 51 c131 174 84 444 -99 556 -77 48 -148 64 -254 60 -78 -2 -102 -8
-159 -35 -82 -39 -145 -100 -184 -179 -27 -54 -29 -68 -29 -169 0 -97 3 -115
24 -155 35 -66 67 -104 111 -135 46 -32 47 -41 25 -149 -62 -299 -297 -531
-625 -617 -118 -30 -323 -37 -443 -15 -294 56 -527 223 -685 492 -25 43 -28
54 -17 65 8 8 30 40 49 73 133 222 3 413 -296 433 -100 7 -90 -6 -109 141 -21
168 18 377 96 507 114 190 281 245 342 113 38 -79 45 -147 53 -468 l7 -315 32
-76 c68 -162 184 -301 314 -373 176 -98 418 -106 657 -21 83 30 223 97 258
123 l23 18 -18 47 -18 47 -105 4 c-211 7 -320 90 -359 275 -31 144 3 499 68
726 124 431 144 814 56 1081 -109 328 -373 515 -750 531 -101 4 -150 2 -215
-11 -414 -84 -698 -454 -768 -1001 l-8 -60 -37 73 c-54 107 -111 186 -199 278
-179 186 -364 275 -772 370 -226 52 -318 79 -429 123 -43 17 -80 31 -82 31 -3
0 -5 -20 -5 -45 0 -35 26 -103 131 -337 468 -1047 722 -1526 1051 -1986 l60
-82 -35 -53 c-92 -138 -90 -257 7 -353 59 -59 134 -92 231 -101 l62 -6 138
-296 c432 -924 685 -1465 689 -1469 3 -2 107 21 233 52 1944 473 4057 551
6293 230 423 -60 1092 -183 1489 -274 73 -16 141 -30 150 -30 13 0 116 214
422 877 l404 877 76 13 c41 7 96 21 122 32 64 27 132 93 153 147 35 92 1 222
-82 314 l-36 39 60 83 c329 460 583 939 1051 1986 105 234 131 302 131 337 0
25 -2 45 -5 45 -2 0 -39 -14 -82 -31 -111 -44 -203 -71 -429 -123 -408 -95
-593 -184 -772 -370 -88 -92 -145 -171 -199 -278 l-37 -73 -8 60 c-70 547
-354 917 -768 1001 -65 13 -114 15 -215 11 -424 -18 -693 -243 -781 -651 -9
-39 -18 -136 -21 -216 -8 -222 27 -462 108 -745 65 -227 99 -582 68 -726 -39
-185 -148 -268 -359 -275 l-105 -4 -18 -47 -18 -47 23 -18 c35 -26 175 -93
258 -123 177 -63 370 -76 515 -36 203 56 363 207 456 430 l32 76 8 315 c8 317
14 372 44 448 61 152 230 108 350 -93 77 -130 117 -339 96 -507 -7 -51 -16
-110 -22 -130 -10 -37 -11 -38 -57 -38 -141 0 -288 -80 -329 -179 -35 -83 -7
-218 62 -299 l35 -40 -22 -39 c-103 -179 -252 -315 -443 -404 -123 -58 -217
-79 -375 -86 -163 -6 -279 11 -408 61 -282 109 -467 316 -521 584 -20 99 -17
109 48 169 78 70 113 141 119 243 10 165 -76 308 -226 378 -52 25 -68 27 -177
27 -116 0 -122 -1 -187 -34 -81 -40 -143 -104 -183 -186 -27 -54 -30 -70 -30
-160 0 -92 3 -105 32 -165 18 -36 43 -76 57 -89 l25 -24 -40 -47 c-85 -101
-232 -200 -370 -251 -379 -138 -821 -26 -1065 270 -49 59 -124 186 -124 209 0
6 17 16 38 22 58 19 166 78 209 115 85 73 117 187 78 282 -20 50 -109 137
-178 173 -44 24 -47 27 -47 66 0 62 28 196 57 277 101 283 254 419 344 307 87
-108 86 -445 -1 -701 -79 -228 3 -446 227 -605 140 -101 306 -155 474 -156 91
-1 114 3 153 22 93 44 130 140 85 219 -28 51 -95 97 -152 106 -257 38 -393
149 -405 330 -7 119 35 243 149 431 79 131 144 185 457 377 204 126 301 196
381 276 237 237 276 530 124 931 -40 107 -88 175 -177 257 -204 184 -487 264
-793 222 -94 -12 -241 -80 -344 -158 -89 -68 -212 -199 -282 -301 l-57 -84 0
51 c0 72 -24 188 -53 260 -47 115 -109 200 -300 407 -121 132 -172 203 -228
317 -37 75 -41 79 -73 79 -31 0 -35 -3 -64 -71z"/>
</g>
</svg>
